<svg viewBox="0 0 24 24" version="1.1" xmlns="http://www.w3.org/2000/svg"><path d="M21,17.003l-12.029,-0.003l0,-9.986l10.029,0l0,-0.01l2,0l0,9.999Zm-1.971,-8.032l-8.058,0l0,6.058l8.058,-0l-0,-6.058Zm-2.036,12.029l-1.986,0l0,-2l1.986,0l0,2Zm2.007,0l-0.007,0l0,-2l0.007,0l0,-0.025l2,0l0,0.025c0,1.11 -0.89,2 -2,2Zm2,-3.997l0,-0.007l0,0.007Zm-18,-7.992l0,-2.007l2,-0l0,1.971l-0.007,0l-0,0.036l-1.993,0Zm-0,-4.011c-0,-1.11 0.89,-2 2,-2l0.007,-0l-0,2l-0.007,-0l-0,0.025l-2,-0l-0,-0.025Zm5.993,-0l-1.986,-0l-0,-2l1.986,-0l0,2Zm-3.943,16l-0.05,0c-1.1,0 -2,-0.89 -2,-2l-0,-0.004l2,0l-0,0.004l0.05,0l-0,2Zm3.943,-2l0,2l-1.943,0l0,-2l1.943,0Zm2,0l2.014,0l-0,2l-2.014,0l-0,-2Zm-5.993,-2.004l-2,0l0,-1.971l2,0l0,1.971Zm-0.007,-5.651l0.007,0l-0,1.68l-2,0l-0,-2.014l1.993,0l-0,0.334Zm13.957,-8.345l0.05,0c1.1,0 2,0.89 2,2l0,0.004l-2,0l0,-0.004l-0.05,0l0,-2Zm-3.943,2l-0,-2l1.943,0l0,2l-1.943,0Zm-2,0l-2.014,0l0,-2l2.014,0l0,2Z" style="fill:#37474f;"/></svg>