<?xml version="1.0" encoding="UTF-8" standalone="no"?><!DOCTYPE svg PUBLIC "-//W3C//DTD SVG 1.1//EN" "http://www.w3.org/Graphics/SVG/1.1/DTD/svg11.dtd"><svg width="100%" height="100%" viewBox="0 0 24 24" version="1.1" xmlns="http://www.w3.org/2000/svg" xmlns:xlink="http://www.w3.org/1999/xlink" xml:space="preserve" xmlns:serif="http://www.serif.com/" style="fill-rule:evenodd;clip-rule:evenodd;stroke-linejoin:round;stroke-miterlimit:2;"><path d="M0.993,5c-0,-1.11 0.89,-2 2,-2l0.007,-0l-0,2l-0.007,-0l-0,0.025l-2,-0l-0,-0.025Zm5.993,-0l-1.986,-0l-0,-2l1.986,-0l-0,2Zm-3.993,14l-0.007,1.986c-1.1,-0 -1.993,-0.876 -1.993,-1.986l-0,-0.004l2,0l-0,0.004Zm3.993,0l-0,2l-1.943,0l-0,-2l1.943,0Zm2,0l2.014,0l-0,2l-2.014,0l-0,-2Zm7.992,0l2.051,-0.014l-0,2l-2.051,0.014l0,-2Zm3.986,0l0.007,0l0,-0.004l2,-0l0,0.004c0,1.11 -0.89,2 -2,2l-0.007,0l0,-2Zm-17.978,-2.029l-1.993,0l-0,-1.946l1.993,0.004l-0,1.942Zm19.985,0.025l-2,-0l0,-1.971l2,-0l0,1.971Zm-19.985,-5.985l0.007,2.014l-2,0l-0,-2.014l1.993,0Zm-0,-3.986l-0,1.986l-1.993,0l-0,-1.986l1.993,-0Zm6.957,9.946l-1.943,0l0,-1.957l1.943,0.015l-0,1.942Zm-0,-6l-0,2.015l-1.943,-0l-0,-2.015l1.943,0Zm-0,-3.957l-0,1.986l-1.943,0l-0,-1.986l1.943,0Zm10.978,-4.014l0.05,-0c1.1,-0 2,0.89 2,2l0,0.004l-2,0l0,-0.004l-0.05,-0l0,-2Zm-3.943,2l0,-2l2.051,0l-0,2l-2.051,-0Zm-5.978,0l-2.014,0l-0,-2l2.014,0l-0,2Zm10,2.014l1.971,0l0,1.957l-1.971,0l0,-1.957Zm0,5.972l-0.029,-2.011l2,-0l0,2.011l-1.971,-0Z" style="fill:#37474f;"/><path d="M15,5l-1.986,0l0,-2l1.986,0l0,2Zm0,13.986l0,2l-2,-0l-0,-2l2,-0Zm1,-2.001l-2,0l0,-1.971l2,0l0,1.971Zm-0.007,-5.985l0.007,2.014l-2,0l0,-2.014l1.993,0Zm0,-3.986l0,1.986l-1.993,0l0,-1.986l1.993,0Z" style="fill:#37474f;"/></svg>