<svg viewBox="0 0 24 24" version="1.1" xmlns="http://www.w3.org/2000/svg"><path d="M3,5c-0,-1.11 0.89,-2 2,-2l0.007,-0l-0,2l-0.007,-0l-0,0.025l-2,-0l-0,-0.025Zm5.993,-0l-1.986,-0l-0,-2l1.986,-0l0,2Zm-3.943,16l-0.05,0c-1.1,0 -2,-0.89 -2,-2l-0,-0.004l2,0l-0,0.004l0.05,0l-0,2Zm3.943,-2l0,2l-1.943,0l0,-2l1.943,0Zm2,0l2.014,0l-0,2l-2.014,0l-0,-2Zm4.014,0l1.986,0l0,2l-1.986,0l0,-2Zm3.986,0l0.007,0l0,-0.004l2,0l0,0.004c0,1.11 -0.89,2 -2,2l-0.007,0l0,-2Zm-13.993,-2.004l-2,0l0,-1.971l2,0l0,1.971Zm16,0l-2,0l0,-1.971l2,0l0,1.971Zm-16.007,-5.985l0.007,2.014l-2,0l0,-2.014l1.993,0Zm-0,-3.986l-0,1.986l-1.993,0l-0,-1.986l1.993,-0Zm8.007,9.96l-2,0l0,-1.971l2,0l0,1.971Zm-0.007,-5.985l0.007,2.014l-2,0l0,-2.014l1.993,0Zm-0,-3.986l-0,1.986l-1.993,0l-0,-1.986l1.993,0Zm5.957,-4.014l0.05,0c1.1,0 2,0.89 2,2l0,0.004l-2,0l0,-0.004l-0.05,0l0,-2Zm-3.943,2l0,-2l1.943,0l0,2l-1.943,0Zm-2,0l-2.014,0l0,-2l2.014,0l0,2Zm6.022,2.014l1.971,0l0,1.957l-1.971,0l-0,-1.957Zm-0,5.972l-0.029,-2.011l2,0l0,2.011l-1.971,-0Z" style="fill:#37474f;"/></svg>