<svg viewBox="0 0 24 24" version="1.1" xmlns="http://www.w3.org/2000/svg"><path d="M5.61,21.654c0.309,-0.545 0.694,-1.039 1.142,-1.468l16.234,0l-0,3.028l-19.9,0c-0.111,0 -0.2,-0.089 -0.2,-0.2l-0,-0.4c-0,-0.11 0.089,-0.2 0.2,-0.2l1.434,0l0.601,-1.043l0.489,0.283Z" style="fill:#4dd0e1;"/><path d="M2,22.191l1.1,-2.005l1.682,1.059l-0.569,0.946l-2.213,-0Zm7.949,-3.907c0,-0 -2.847,0.105 -4.461,2.789l-2.556,-1.61c1.615,-2.683 0.424,-5.329 0.424,-5.329l0.911,-1.514l6.593,4.15l-0.911,1.514Z"/><path d="M17.719,5.371c0.259,-0.43 0.128,-0.995 -0.293,-1.26l-5.068,-3.189c-0.421,-0.265 -0.972,-0.131 -1.232,0.3l-6.528,10.848l6.594,4.149l6.527,-10.848Z" style="fill:#4dd0e1;fill-rule:nonzero;"/><path d="M17.719,5.371l-6.527,10.848l-6.594,-4.149l6.528,-10.848c0.26,-0.431 0.811,-0.565 1.232,-0.3l5.068,3.189c0.421,0.265 0.552,0.83 0.293,1.26Zm-0.892,-0.456l-4.901,-3.084l-5.966,9.914l4.901,3.084l5.966,-9.914Z"/></svg>