<svg viewBox="0 0 12 12" version="1.1" xmlns="http://www.w3.org/2000/svg"><path d="M10.986,7.536l-0,-3.442l0.428,-0l-0,3.442l-0.428,0Zm-1.086,0l0,-3.442l0.428,-0l-0,3.442l-0.428,0Zm-1.053,-0.307c-0.144,0.12 -0.293,0.211 -0.449,0.272c-0.155,0.061 -0.316,0.092 -0.483,0.092c-0.264,-0 -0.474,-0.065 -0.631,-0.193c-0.158,-0.128 -0.236,-0.301 -0.236,-0.519c-0,-0.144 0.037,-0.272 0.11,-0.383c0.074,-0.111 0.175,-0.198 0.303,-0.26c0.128,-0.063 0.322,-0.109 0.582,-0.139c0.349,-0.041 0.606,-0.091 0.769,-0.148l0.003,-0.108c-0,-0.17 -0.038,-0.29 -0.114,-0.359c-0.107,-0.1 -0.271,-0.15 -0.492,-0.15c-0.2,-0 -0.349,0.033 -0.448,0.1c-0.099,0.067 -0.172,0.192 -0.218,0.376l-0.422,-0.056c0.06,-0.268 0.181,-0.463 0.365,-0.585c0.183,-0.122 0.446,-0.183 0.787,-0.183c0.266,0 0.475,0.04 0.626,0.121c0.151,0.081 0.247,0.18 0.287,0.299c0.039,0.119 0.059,0.293 0.059,0.522l0,0.563c0,0.395 0.009,0.643 0.028,0.746c0.018,0.102 0.055,0.202 0.109,0.299l-0.448,0c-0.045,-0.086 -0.074,-0.188 -0.087,-0.307Zm-0.035,-0.944c-0.158,0.062 -0.391,0.115 -0.702,0.159c-0.18,0.025 -0.306,0.054 -0.378,0.086c-0.072,0.032 -0.128,0.078 -0.168,0.136c-0.039,0.059 -0.059,0.127 -0.059,0.203c-0,0.119 0.045,0.214 0.137,0.286c0.091,0.071 0.217,0.107 0.378,0.107c0.153,-0 0.292,-0.033 0.418,-0.097c0.125,-0.064 0.218,-0.15 0.28,-0.257c0.063,-0.107 0.094,-0.263 0.094,-0.468l-0,-0.155Zm-5.685,1.251l0,-2.494l0.384,0l0,0.348c0.086,-0.129 0.195,-0.229 0.329,-0.299c0.134,-0.07 0.281,-0.105 0.44,-0.105c0.178,0 0.329,0.037 0.452,0.111c0.124,0.074 0.211,0.182 0.264,0.324c0.101,-0.145 0.217,-0.254 0.348,-0.326c0.131,-0.073 0.276,-0.109 0.435,-0.109c0.242,0 0.433,0.067 0.573,0.2c0.14,0.133 0.21,0.346 0.21,0.638l-0,1.712l-0.428,0l-0,-1.572c-0,-0.179 -0.016,-0.306 -0.048,-0.38c-0.032,-0.075 -0.084,-0.132 -0.156,-0.173c-0.072,-0.041 -0.152,-0.061 -0.241,-0.061c-0.185,0 -0.335,0.059 -0.452,0.177c-0.116,0.119 -0.174,0.305 -0.174,0.559l-0,1.45l-0.431,0l0,-1.622c0,-0.207 -0.039,-0.352 -0.118,-0.437c-0.078,-0.085 -0.187,-0.127 -0.324,-0.127c-0.196,0 -0.351,0.064 -0.465,0.192c-0.113,0.127 -0.17,0.36 -0.17,0.699l0,1.295l-0.428,0Zm-2.613,-0.746l0.425,-0.066c0.025,0.176 0.094,0.307 0.206,0.393c0.113,0.085 0.262,0.128 0.448,0.128c0.187,0 0.331,-0.037 0.433,-0.111c0.102,-0.075 0.152,-0.169 0.152,-0.283c0,-0.099 -0.043,-0.176 -0.131,-0.231c-0.06,-0.037 -0.205,-0.084 -0.436,-0.14c-0.334,-0.083 -0.557,-0.154 -0.67,-0.212c-0.112,-0.058 -0.199,-0.135 -0.261,-0.232c-0.063,-0.097 -0.094,-0.208 -0.094,-0.331c0,-0.213 0.085,-0.386 0.254,-0.519c0.168,-0.133 0.402,-0.2 0.701,-0.2c0.188,0 0.354,0.027 0.496,0.082c0.143,0.055 0.252,0.129 0.328,0.221c0.075,0.092 0.128,0.225 0.157,0.397l-0.419,0.056c-0.039,-0.272 -0.222,-0.408 -0.55,-0.408c-0.187,-0 -0.325,0.03 -0.417,0.09c-0.091,0.06 -0.136,0.136 -0.136,0.23c-0,0.092 0.043,0.164 0.131,0.217c0.052,0.032 0.207,0.081 0.465,0.15c0.355,0.093 0.585,0.166 0.69,0.22c0.105,0.054 0.186,0.128 0.245,0.221c0.058,0.093 0.087,0.204 0.087,0.332c-0,0.238 -0.094,0.431 -0.281,0.578c-0.187,0.147 -0.443,0.221 -0.767,0.221c-0.607,-0 -0.959,-0.268 -1.056,-0.803Z" style="fill:#37474f;"/></svg>