<svg viewBox="0 0 24 24" version="1.1" xmlns="http://www.w3.org/2000/svg"><path d="M20.021,15.383l1.229,0.23c0.019,0.221 0.068,0.374 0.141,0.457c0.101,0.116 0.263,0.176 0.482,0.176c0.28,-0 0.491,-0.065 0.632,-0.195c0.094,-0.088 0.166,-0.225 0.214,-0.42c0.032,-0.137 0.049,-0.391 0.049,-0.762l-0,-0.915c-0.32,0.677 -0.726,1.016 -1.217,1.016c-0.545,0 -0.978,-0.357 -1.296,-1.067c-0.25,-0.566 -0.374,-1.265 -0.374,-2.103c-0,-1.052 0.164,-1.855 0.49,-2.41c0.328,-0.555 0.736,-0.832 1.222,-0.832c0.503,-0 0.918,0.339 1.244,1.021l0,-0.881l1.006,-0l-0,5.63c-0,0.738 -0.04,1.293 -0.118,1.659c-0.08,0.365 -0.189,0.653 -0.332,0.86c-0.144,0.21 -0.335,0.373 -0.573,0.493c-0.238,0.116 -0.541,0.176 -0.905,0.176c-0.688,-0 -1.176,-0.182 -1.464,-0.547c-0.289,-0.363 -0.434,-0.824 -0.434,-1.384l0.004,-0.202Zm0.96,-3.678c0,0.666 0.084,1.153 0.25,1.461c0.169,0.309 0.375,0.464 0.619,0.464c0.263,0 0.484,-0.158 0.665,-0.477c0.181,-0.316 0.272,-0.785 0.272,-1.407c-0,-0.651 -0.087,-1.133 -0.259,-1.446c-0.175,-0.317 -0.394,-0.472 -0.659,-0.472c-0.257,-0 -0.469,0.153 -0.638,0.461c-0.166,0.311 -0.25,0.783 -0.25,1.416Zm-1.951,3.265l-1.075,0l0,-3.201c0,-0.676 -0.021,-1.114 -0.067,-1.314c-0.047,-0.197 -0.122,-0.352 -0.225,-0.464c-0.104,-0.109 -0.228,-0.163 -0.373,-0.163c-0.185,-0 -0.353,0.078 -0.501,0.236c-0.147,0.155 -0.248,0.365 -0.305,0.624c-0.055,0.26 -0.082,0.742 -0.082,1.442l0,2.84l-1.073,0l-0,-6.272l0.997,-0l0,0.922c0.354,-0.71 0.802,-1.062 1.339,-1.062c0.237,-0 0.454,0.065 0.65,0.197c0.198,0.132 0.345,0.3 0.446,0.505c0.101,0.205 0.17,0.436 0.21,0.697c0.04,0.26 0.059,0.633 0.059,1.115l0,3.898Zm-8.728,-3.224c-0,-0.552 0.088,-1.083 0.263,-1.599c0.177,-0.516 0.425,-0.91 0.749,-1.182c0.322,-0.272 0.682,-0.407 1.079,-0.407c0.615,-0 1.12,0.308 1.511,0.923c0.394,0.616 0.59,1.394 0.59,2.335c-0,0.949 -0.198,1.737 -0.594,2.361c-0.398,0.622 -0.896,0.936 -1.498,0.936c-0.373,0 -0.728,-0.132 -1.065,-0.391c-0.339,-0.26 -0.595,-0.641 -0.772,-1.143c-0.175,-0.501 -0.263,-1.112 -0.263,-1.833Zm1.1,0.088c0,0.622 0.097,1.099 0.289,1.431c0.191,0.329 0.427,0.495 0.707,0.495c0.28,0 0.515,-0.166 0.705,-0.495c0.191,-0.332 0.286,-0.811 0.286,-1.441c-0,-0.615 -0.095,-1.089 -0.286,-1.418c-0.19,-0.332 -0.425,-0.495 -0.705,-0.495c-0.28,-0 -0.516,0.163 -0.707,0.495c-0.192,0.329 -0.289,0.806 -0.289,1.428Zm-2.872,3.136l-1.075,0l-0,-6.272l0.999,-0l0,0.891c0.171,-0.42 0.324,-0.697 0.461,-0.832c0.137,-0.132 0.291,-0.199 0.465,-0.199c0.244,-0 0.48,0.103 0.707,0.313l-0.332,1.447c-0.181,-0.182 -0.35,-0.272 -0.505,-0.272c-0.152,-0 -0.278,0.064 -0.383,0.191c-0.105,0.127 -0.188,0.361 -0.246,0.695c-0.061,0.334 -0.091,1.034 -0.091,2.102l0,1.936Zm-1.774,-6.272l0,1.324l-0.734,0l-0,2.528c-0,0.51 0.006,0.808 0.021,0.894c0.012,0.085 0.044,0.155 0.094,0.21c0.051,0.054 0.112,0.083 0.181,0.083c0.101,-0 0.245,-0.055 0.434,-0.161l0.09,1.288c-0.248,0.166 -0.532,0.249 -0.848,0.249c-0.193,0 -0.368,-0.052 -0.524,-0.15c-0.155,-0.101 -0.269,-0.231 -0.343,-0.392c-0.071,-0.158 -0.122,-0.376 -0.151,-0.645c-0.023,-0.195 -0.034,-0.583 -0.034,-1.169l0,-2.735l-0.494,0l-0,-1.324l0.494,-0l0,-1.244l1.08,-0.97l-0,2.214l0.734,-0Zm-6.599,4.484l1.078,-0.254c0.046,0.321 0.141,0.568 0.279,0.734c0.141,0.168 0.337,0.251 0.59,0.251c0.277,-0 0.488,-0.078 0.627,-0.236c0.094,-0.111 0.143,-0.257 0.143,-0.443c-0,-0.125 -0.028,-0.231 -0.078,-0.314c-0.053,-0.078 -0.173,-0.15 -0.36,-0.218c-0.867,-0.295 -1.416,-0.565 -1.648,-0.808c-0.322,-0.34 -0.481,-0.809 -0.481,-1.413c-0,-0.542 0.138,-0.998 0.416,-1.369c0.278,-0.37 0.709,-0.554 1.292,-0.554c0.558,-0 0.97,0.14 1.24,0.42c0.271,0.277 0.456,0.692 0.559,1.239l-1.014,0.29c-0.044,-0.246 -0.126,-0.433 -0.246,-0.562c-0.122,-0.13 -0.295,-0.195 -0.52,-0.195c-0.282,0 -0.484,0.062 -0.608,0.184c-0.08,0.086 -0.122,0.197 -0.122,0.335c-0,0.119 0.036,0.22 0.107,0.303c0.097,0.109 0.432,0.264 1.004,0.466c0.572,0.2 0.972,0.446 1.199,0.736c0.226,0.296 0.337,0.708 0.337,1.237c0,0.573 -0.156,1.068 -0.467,1.48c-0.309,0.415 -0.77,0.622 -1.38,0.622c-0.554,0 -0.992,-0.174 -1.313,-0.521c-0.325,-0.347 -0.535,-0.816 -0.634,-1.41Z" style="fill:#b71c1c;"/></svg>