<svg viewBox="0 0 24 24" version="1.1" xmlns="http://www.w3.org/2000/svg"><path d="M22.486,18.529l-0,4l-4,-0l4,-4Z"/><path d="M15.086,20.586l4.6,-4.6l-4.6,-4.6l1.4,-1.4l6,6l-6,6l-1.4,-1.4Zm2.864,-16.572l0.05,0c1.1,0 2,0.89 2,2l0,0.004l-2,0l0,-0.004l-0.05,0l0,-2Zm-3.943,2l0,-2l2.05,0l0,2l-2.05,0Zm4.022,2.015l1.971,-0l0,1.957l-1.971,-0l-0,-1.957Zm-6,-2.015l-1.986,0l-0,-2l1.986,0l-0,2Zm-5.993,13.986l-0.05,0c-1.1,0 -2,-0.89 -2,-2l-0,-0.004l2,0l-0,0.004l0.05,0l-0,2Zm3.943,-2l-0,2l-2.05,0l-0,-2l2.05,0Zm-4.022,-2.014l-1.971,-0l-0,-1.957l1.971,-0l0,1.957Zm6,2.014l1.986,0l0,2l-1.986,0l0,-2Zm-3.1,-5.857l-1.4,1.4l-6,-6l6,-6l1.4,1.4l-4.6,4.6l4.6,4.6Z" style="fill:#37474f;"/></svg>